# xmcd
#
# Track frame offsets: 
#        150
#        14683
#        35389
#        47668
#        64551
#        76831
#        93015
#        114713
#        135987
#        158319
#        173667
#        193761
#        216644
#        230040
#        244029
#        267257
#        291668
#        308527
#        324331
#
# Disc length: 4598 seconds
#
# Revision: 1
# Processed by: cddbd v1.5.2PL0 Copyright (c) Steve Scherf et al.
# Submitted via: ExactAudioCopy v1.3
#
DISCID=0011f413
DTITLE=Cut Up Boys  - Mash Up Mix 90's Disc 2
DYEAR=2010
DGENRE=Dance
TTITLE0=T-Empo Feat. Julie Roberts/SASH! - Saturday Night, Sunday Morn
TTITLE0=ing (T-Empo Mix)-Stay (Acappella)
TTITLE1=Haddaway/Eiffel 65 - What Is Love?-Blue (Da Ba Dee) (Acappella
TTITLE1=)
TTITLE2=The Outhere Brothers/Ruff Loaderz Feat. Sheryl Deane - Boom Bo
TTITLE2=om Boom (Don't Break My Balls Mix)-You're Not Alone
TTITLE3=D’Menace/Revelation - Deep Menace (Joey Negro’s One Way Mix)-J
TTITLE3=ust Be Dub To Me (Acappella)
TTITLE4=Blockster/2 In A Room/2 Unlimited - You Should Be-Wiggle It (A
TTITLE4=cappella)-Get Ready For This (Acappella)
TTITLE5=Shamen/JoBabe - Ebeneezer Goode (Beat Edit)-Let Me Be Your Fan
TTITLE5=tasy (Acappella) 
TTITLE6=Gat Décor/ReUnited - Passion-Sing It Back (Acappella)
TTITLE7=Daryl Pandy Meets Nerios Dubwork/ReUnited/JoBabe - Sunshine and 
TTITLE7=Happiness-Sun Is Shining (Acappella)-Free (Acappella)
TTITLE8=DJ Jeroenski/Double 99/Rebel Bassline/Warp Brothers/Armand Van
TTITLE8=Helden Presents Old Skool Junkies Part 2 - Back Once Again (A
TTITLE8=cappella)-Rip Groove (Tim Deluxe Mix)-King Of My Castle (Acapp
TTITLE8=ella)-Smells Like Teen Spirit-The Funk Phenomena (Acappella)
TTITLE9=Big Time Charlie/Joshkovsky - On The Run (Big Ron Mix)-40 Mile
TTITLE9=s (Acappella)
TTITLE10=Powerhouse Feat. Duane Harden/A.T.F.C. Presents Onephatdeeva 
TTITLE10=/ What You Need (Full Intention Power Mix)-In And Out Of My L
TTITLE10=ife (Acappella)
TTITLE11=Baby Bumps/Love Assassins/Staxx - I Got This Feeling (Subsoni
TTITLE11=c! Mix)-Ain’t No Love (Ain’t No Use) (Acappella)-Joy (Lovejoy
TTITLE11=Serious Vocal Edit)
TTITLE12=SASH!/Bart B More Vs Oliver Twizt/SNAP! - Ecuador-Finally (Ac
TTITLE12=appella)-The Power (Acappella)-Jacques Your Body (Make Me Swe
TTITLE12=at) (Club Mix)-Sounds Of Wickedness (PF Project Def Scratch M
TTITLE12=ix)
TTITLE13=Les Rythmes Digitales/Tzant Feat. ODC MC - Jacques Your Body 
TTITLE13=(Make Me Sweat) (Club Mix)-Sounds Of Wickedness (PF Project D
TTITLE13=ef Scratch Mix)
TTITLE14=SASH!/Jam and Spoon Feat. Plavka/Praxis Feat. Kathy Brown - Enc
TTITLE14=ore Une Fois-Right In The Night-Turn Me Out (Acappella)
TTITLE15=Ruff Driverz Presents Arrola/Clock - Dreaming-Everybody (Acap
TTITLE15=pella)
TTITLE16=Brainbug/Pamela Fernandez - Nightmare (Sinister Strings Mix)-
TTITLE16=Kickin In The Beat (Acappella)
TTITLE17=Storm/BM Dubs Presents Mr Rumble Feat. Brasstooth and Kee - Sto
TTITLE17=rm-Whoomph!...There It Is (Acappella)
TTITLE18=Liquid Child/Babybird - Diving Faces-You're Gorgeous
EXTD=
EXTT0=
EXTT1=
EXTT2=
EXTT3=
EXTT4=
EXTT5=
EXTT6=
EXTT7=
EXTT8=
EXTT9=
EXTT10=
EXTT11=
EXTT12=
EXTT13=
EXTT14=
EXTT15=
EXTT16=
EXTT17=
EXTT18=
PLAYORDER=
